{
  "accessors": [
    {
      "bufferView": 1,
      "componentType": 5126,
      "count": 1800,
      "max": [
        10.0,
        10.0,
        1.4997831583023071
      ],
      "min": [
        -10.0,
        -10.0,
        -1.4997831583023071
      ],
      "type": "VEC3"
    },
    {
      "bufferView": 1,
      "byteOffset": 21600,
      "componentType": 5126,
      "count": 1800,
      "max": [
        0.9126642346382141,
        0.9118998050689697,
        1.0
      ],
      "min": [
        -0.9126642346382141,
        -0.9118998050689697,
        -1.0
      ],
      "type": "VEC3"
    },
    {
      "bufferView": 0,
      "componentType": 5125,
      "count": 8640,
      "type": "SCALAR"
    }
  ],
  "asset": {
    "extras": {
      "author": "Lukke (https://sketchfab.com/luke.ransfield)",
      "license": "CC-BY-4.0 (http://creativecommons.org/licenses/by/4.0/)",
      "source": "https://sketchfab.com/3d-models/rotated-strip-f0d09141b9bd4f1b93827d8935d1226e",
      "title": "Rotated Strip"
    },
    "generator": "Sketchfab-12.68.0",
    "version": "2.0"
  },
  "bufferViews": [
    {
      "buffer": 0,
      "byteLength": 34560,
      "name": "floatBufferViews",
      "target": 34963
    },
    {
      "buffer": 0,
      "byteLength": 43200,
      "byteOffset": 34560,
      "byteStride": 12,
      "name": "floatBufferViews",
      "target": 34962
    }
  ],
  "buffers": [
    {
      "byteLength": 77760,
      "uri": "strip.bin"
    }
  ],
  "materials": [
    {
      "doubleSided": true,
      "name": "diffuse_Black",
      "pbrMetallicRoughness": {
        "metallicFactor": 0.5,
        "roughnessFactor": 0.0
      }
    }
  ],
  "meshes": [
    {
      "name": "Object_0",
      "primitives": [
        {
          "attributes": {
            "NORMAL": 1,
            "POSITION": 0
          },
          "indices": 2,
          "material": 0,
          "mode": 4
        }
      ]
    }
  ],
  "nodes": [
    {
      "children": [
        1
      ],
      "matrix": [
        1.0,
        0.0,
        0.0,
        0.0,
        0.0,
        2.220446049250313e-16,
        -1.0,
        0.0,
        0.0,
        1.0,
        2.220446049250313e-16,
        0.0,
        0.0,
        0.0,
        0.0,
        1.0
      ],
      "name": "Sketchfab_model"
    },
    {
      "children": [
        2
      ],
      "name": "471f55294514477588f2512812a1c8f9.obj.cleaner.materialmerger.gles"
    },
    {
      "mesh": 0,
      "name": "Object_2"
    }
  ],
  "scene": 0,
  "scenes": [
    {
      "name": "Sketchfab_Scene",
      "nodes": [
        0
      ]
    }
  ]
}
